<svg width="36" height="36" viewBox="0 0 36 36" fill="none" xmlns="http://www.w3.org/2000/svg">
<circle opacity="0.8" cx="18" cy="18" r="17.5" fill="white" stroke="#381A5B"/>
<path d="M16.6371 8.72951L12.2402 8.63965C13.8913 8.85532 15.6501 12.1443 16.3231 13.7619L20.5854 22.8381C20.9443 23.512 21.5276 24.5365 23.1428 25.5789C24.758 26.6213 26.6274 26.7022 27.3602 26.6123C25.2366 22.1341 20.7828 12.7464 19.9573 11.021C19.1317 9.29565 17.3999 8.77444 16.6371 8.72951Z" fill="#381A5B" stroke="#381A5B" stroke-linejoin="round"/>
<path d="M11.5034 17.8748C13.0898 16.4598 14.9157 16.4634 15.6303 16.6421C12.4681 16.6421 13.004 19.0539 13.4328 19.6971C13.8616 20.3403 14.9335 20.6618 15.5231 21.573C16.1127 22.4841 16.0591 23.4489 15.5231 24.4672C15.041 25.3832 13.2185 26.8791 11.021 25.9143C8.99991 25.0271 9.25223 22.5913 9.25229 22.4305C9.25248 21.841 9.52027 19.6435 11.5034 17.8748Z" fill="#381A5B" stroke="#381A5B" stroke-linejoin="round"/>
</svg>
